<?xml version="1.0" encoding="utf-8"?>
<!-- Svg Vector Icons : http://www.onlinewebfonts.com/icon -->
<!DOCTYPE svg PUBLIC "-//W3C//DTD SVG 1.1//EN" "http://www.w3.org/Graphics/SVG/1.1/DTD/svg11.dtd">
<svg version="1.1" xmlns="http://www.w3.org/2000/svg" xmlns:xlink="http://www.w3.org/1999/xlink" x="0px" y="0px" viewBox="0 0 1000 1000" enable-background="new 0 0 1000 1000" xml:space="preserve">
<metadata> Svg Vector Icons : http://www.onlinewebfonts.com/icon </metadata>
<g><g transform="translate(0.000000,512.000000) scale(0.100000,-0.100000)"><path d="M5000,4920.5c-55.5-55.5-407.7-426.8-782.9-825l-681.4-721.6v-153.1v-153.1h-491.9c-271.8,0-513-5.7-535.9-11.5c-42.1-11.5-1523.6-1561.9-1569.5-1642.3c-17.2-30.6-23-386.6-24.9-1481.5v-1443.2l-162.7-179.9l-162.7-179.9v-1292v-1292H479c-116.7-1.9-157-19.1-193.3-90c-36.4-67-26.8-120.6,32.5-179.9l55.5-55.5H5000h4626.3l55.5,55.5c59.3,59.3,68.9,112.9,32.5,179.9c-36.4,70.8-76.6,88.1-191.4,90h-111v1636.5v1634.6l47.9,47.9c30.6,30.6,47.9,68.9,47.9,109.1c0,55.5-42.1,105.3-373.2,438.3l-373.2,375.1v1642.3c0,1627,0,1642.3,38.3,1672.9c21,19.1,44,65.1,51.7,105.3l11.5,74.7l-869,869l-869,869H6112.1H5101.4L5000,4920.5z M7641.4,4043.8l650.8-650.8h-759.9h-758l-465.1,493.8c-256.5,269.9-534,562.7-618.2,650.8l-153.1,157h727.3h725.4L7641.4,4043.8z M5821.2,3921.3l643.1-679.5v-580v-580L5976.2,2570l-488.1,488.1l-813.5,5.7l-813.5,5.7v84.2v84.2l643.1,681.4c354.1,373.2,650.8,679.5,658.4,679.5C5172.3,4598.9,5469,4294.6,5821.2,3921.3z M8431.9,1599.6c1.9-803.9-1.9-1460.4-9.6-1460.4c-7.6,0-155,139.7-325.4,312l-312,310.1l-331.1,9.6l-329.2,9.6l-5.7,151.2c-3.8,128.2,0,157,32.5,191.4c49.8,53.6,80.4,135.9,65.1,178c-5.7,19.1-105.3,130.2-218.2,246.9l-208.6,212.5v641.2c0,352.2,5.7,646.9,13.4,652.7c5.7,7.7,375.1,11.5,817.3,9.6l805.8-5.7L8431.9,1599.6z M6004.9,2081.9l660.4-660.3h-1248H4171.2l-610.6,643.1c-335,354.1-610.6,650.8-614.4,658.4c-1.9,7.7,535.9,15.3,1196.3,17.2l1202,1.9L6004.9,2081.9z M3397.9,1762.3l463.2-491.9V531.5v-736.9h-846h-846l-202.9-204.8c-111-114.8-321.6-331.1-465.1-484.3L1238.9-1172V49.2v1221.2l654.6,691l654.6,691l193.3-199.1C2846.7,2342.2,3141.5,2032.1,3397.9,1762.3z M6789.7,933.5V770.8H6271h-516.8l-93.8-90c-49.8-51.7-252.7-264.1-451.7-474.7c-197.1-210.5-436.4-463.2-532.1-560.8l-172.3-178l-158.9,158.9L4186.5-215v654.6v656.5h1301.6h1301.6V933.5z M8292.2-205.4L8943-856.2h-758H7429L6822.2-215c-333.1,352.2-606.8,645-606.8,650.8s321.6,9.6,713.9,9.6h712L8292.2-205.4z M6632.7-492.5l480.4-507.2l1.9-1726.5v-1728.4h-325.4h-325.4v1096.8v1098.7l-49.8,45.9l-49.8,45.9h-555.1h-555.1l-45.9-53.6l-45.9-53.6v-1091v-1089.1h-325.4h-325.4v1722.7v1720.7l652.7,691l652.7,689.1l166.5-176.1C6077.6,95.1,6368.6-213.1,6632.7-492.5z M4161.6-649.5l118.7-116.7l-47.9-61.3c-45.9-61.3-45.9-63.2-45.9-532.1v-472.8h-178h-178L3248.6-1216c-321.6,338.8-595.3,631.6-608.7,650.8c-24.9,32.5,1.9,34.4,689.1,34.4h712L4161.6-649.5z M2808.4-1229.4c277.5-294.8,555.1-587.6,614.4-652.7l111-116.8l1.9-1228.8l1.9-1226.9h-327.3H2885v897.7c0,922.6-5.7,997.2-76.6,1035.5c-38.3,21-1104.4,26.8-1158,7.7c-82.3-32.5-86.1-72.7-86.1-1031.7v-909.2h-325.4H913.5v1230.7V-1995l656.5,692.9l654.6,694.8l40.2-44C2285.9-674.3,2530.9-934.6,2808.4-1229.4z M9086.5-2818.1v-1636.5H8273h-813.5v1636.5v1636.5H8273h813.5V-2818.1z M4182.7-3310l3.8-1144.6h-162.7h-162.7v1148.4v1150.3l158.9-5.7l157-5.7L4182.7-3310z M6138.9-3478.4v-976.2h-325.4h-325.4v976.2v976.2h325.4h325.4V-3478.4z M2555.8-3635.4L2550-4445l-329.2-5.7l-331.1-3.8v813.5v813.5h335h335L2555.8-3635.4z"/><path d="M4940.7,3699.3c-105.3-42.1-134-181.8-55.5-258.4c44-45.9,57.4-47.9,277.5-47.9c220.1,0,233.5,1.9,277.5,47.9c67,65.1,63.2,149.3-7.6,222c-55.5,53.6-61.3,55.5-254.6,53.6C5068.9,3716.5,4961.7,3708.9,4940.7,3699.3z"/><path d="M1954.7,1050.2c-68.9-57.4-74.6-164.6-11.5-227.8c42.1-42.1,53.6-42.1,595.3-47.9l553.2-5.7l53.6,45.9c70.8,61.3,74.6,162.7,7.7,233.5l-44,47.9h-551.3h-551.3L1954.7,1050.2z"/><path d="M5264.1-1200.7c-67-26.8-107.2-105.3-93.8-181.8c23-122.5,34.4-124.4,648.9-124.4h551.3l45.9,47.9c80.4,78.5,59.3,201-42.1,254.6C6324.5-1177.7,5329.2-1173.9,5264.1-1200.7z"/><path d="M1667.6-1859.1c-80.4-34.5-116.8-124.4-84.2-202.9c13.4-32.5,40.2-67,59.3-76.6c19.1-11.5,269.9-19.1,587.6-19.1c549.3,0,553.2,0,591.5,44c57.4,63.2,65.1,103.4,36.4,174.2c-17.2,44-45.9,70.8-88,86.1C2674.4-1820.9,1746.1-1826.6,1667.6-1859.1z"/></g></g>
</svg>